HIERARCHY
ROOT Root
{
  OFFSET 0.0 0.0 0.0
  CHANNELS 6 Xposition Yposition Zposition Zrotation Yrotation Xrotation
  JOINT Hips
  {
    OFFSET 0.0 100.0 0.0
    CHANNELS 6 Xposition Yposition Zposition Zrotation Yrotation Xrotation
    JOINT Spine1
    {
      OFFSET 5.003913 -0.037094 -0.013727
      CHANNELS 3 Zrotation Yrotation Xrotation
      JOINT Spine2
      {
        OFFSET 7.125363 -1e-06 0.0
        CHANNELS 3 Zrotation Yrotation Xrotation
        JOINT Chest
        {
          OFFSET 7.594027 1e-06 0.0
          CHANNELS 3 Zrotation Yrotation Xrotation
          JOINT Neck1
          {
            OFFSET 26.313086 -0.460272 -0.181672
            CHANNELS 3 Zrotation Yrotation Xrotation
            JOINT Neck2
            {
              OFFSET 8.045911 0.0 0.0
              CHANNELS 3 Zrotation Yrotation Xrotation
              JOINT Head
              {
                OFFSET 6.432774 0.0 0.0
                CHANNELS 3 Zrotation Yrotation Xrotation
                JOINT HeadEnd
                {
                  OFFSET 16.169773 0.06451 0.00362
                  CHANNELS 3 Zrotation Yrotation Xrotation
                }
                JOINT Jaw
                {
                  OFFSET 0.108741 3.12938 0.002639
                  CHANNELS 3 Zrotation Yrotation Xrotation
                }
                JOINT LeftEye
                {
                  OFFSET 4.45173 8.166359 3.206392
                  CHANNELS 3 Zrotation Yrotation Xrotation
                }
                JOINT RightEye
                {
                  OFFSET 4.436895 8.135758 -3.222429
                  CHANNELS 3 Zrotation Yrotation Xrotation
                }
              }
            }
          }
          JOINT LeftShoulder
          {
            OFFSET 23.218927 5.195579 1.621656
            CHANNELS 3 Zrotation Yrotation Xrotation
            JOINT LeftArm
            {
              OFFSET 15.902118 2e-06 -2e-06
              CHANNELS 3 Zrotation Yrotation Xrotation
              JOINT LeftForeArm
              {
                OFFSET 28.739307 0.0 -1e-06
                CHANNELS 3 Zrotation Yrotation Xrotation
                JOINT LeftHand
                {
                  OFFSET 27.093981 -4e-06 0.0
                  CHANNELS 3 Zrotation Yrotation Xrotation
                  JOINT LeftHandThumb1
                  {
                    OFFSET 2.276781 3.380274 0.83384
                    CHANNELS 3 Zrotation Yrotation Xrotation
                    JOINT LeftHandThumb2
                    {
                      OFFSET 4.705309 -1e-06 -1e-06
                      CHANNELS 3 Zrotation Yrotation Xrotation
                      JOINT LeftHandThumb3
                      {
                        OFFSET 2.798515 0.0 3e-06
                        CHANNELS 3 Zrotation Yrotation Xrotation
                        JOINT LeftHandThumbEnd
                        {
                          OFFSET 3.180793 4e-06 -4e-06
                          CHANNELS 3 Zrotation Yrotation Xrotation
                        }
                      }
                    }
                  }
                  JOINT LeftHandIndex1
                  {
                    OFFSET 3.247786 2.352677 0.137192
                    CHANNELS 3 Zrotation Yrotation Xrotation
                    JOINT LeftHandIndex2
                    {
                      OFFSET 6.367095 1e-06 0.0
                      CHANNELS 3 Zrotation Yrotation Xrotation
                      JOINT LeftHandIndex3
                      {
                        OFFSET 3.662364 0.0 0.0
                        CHANNELS 3 Zrotation Yrotation Xrotation
                        JOINT LeftHandIndex4
                        {
                          OFFSET 2.329242 4e-06 -4e-06
                          CHANNELS 3 Zrotation Yrotation Xrotation
                          JOINT LeftHandIndexEnd
                          {
                            OFFSET 2.767823 1e-06 0.0
                            CHANNELS 3 Zrotation Yrotation Xrotation
                          }
                        }
                      }
                    }
                  }
                  JOINT LeftHandMiddle1
                  {
                    OFFSET 3.163612 0.945023 -0.406112
                    CHANNELS 3 Zrotation Yrotation Xrotation
                    JOINT LeftHandMiddle2
                    {
                      OFFSET 6.276789 3e-06 0.0
                      CHANNELS 3 Zrotation Yrotation Xrotation
                      JOINT LeftHandMiddle3
                      {
                        OFFSET 4.35652 -1e-06 4e-06
                        CHANNELS 3 Zrotation Yrotation Xrotation
                        JOINT LeftHandMiddle4
                        {
                          OFFSET 2.996877 0.0 8e-06
                          CHANNELS 3 Zrotation Yrotation Xrotation
                          JOINT LeftHandMiddleEnd
                          {
                            OFFSET 2.323256 3e-06 -4e-06
                            CHANNELS 3 Zrotation Yrotation Xrotation
                          }
                        }
                      }
                    }
                  }
                  JOINT LeftHandRing1
                  {
                    OFFSET 2.882606 -0.309162 0.107445
                    CHANNELS 3 Zrotation Yrotation Xrotation
                    JOINT LeftHandRing2
                    {
                      OFFSET 6.033198 0.0 4e-06
                      CHANNELS 3 Zrotation Yrotation Xrotation
                      JOINT LeftHandRing3
                      {
                        OFFSET 4.350578 3e-06 0.0
                        CHANNELS 3 Zrotation Yrotation Xrotation
                        JOINT LeftHandRing4
                        {
                          OFFSET 2.651321 2e-06 -7e-06
                          CHANNELS 3 Zrotation Yrotation Xrotation
                          JOINT LeftHandRingEnd
                          {
                            OFFSET 1.937663 1e-06 -4e-06
                            CHANNELS 3 Zrotation Yrotation Xrotation
                          }
                        }
                      }
                    }
                  }
                  JOINT LeftHandPinky1
                  {
                    OFFSET 2.865315 -1.525436 0.575687
                    CHANNELS 3 Zrotation Yrotation Xrotation
                    JOINT LeftHandPinky2
                    {
                      OFFSET 5.54936 1e-06 -8e-06
                      CHANNELS 3 Zrotation Yrotation Xrotation
                      JOINT LeftHandPinky3
                      {
                        OFFSET 3.070974 0.0 -4e-06
                        CHANNELS 3 Zrotation Yrotation Xrotation
                        JOINT LeftHandPinky4
                        {
                          OFFSET 1.549672 1e-06 0.0
                          CHANNELS 3 Zrotation Yrotation Xrotation
                          JOINT LeftHandPinkyEnd
                          {
                            OFFSET 1.952123 0.0 0.0
                            CHANNELS 3 Zrotation Yrotation Xrotation
                          }
                        }
                      }
                    }
                  }
                }
              }
            }
          }
          JOINT RightShoulder
          {
            OFFSET 23.161716 5.296122 -1.380114
            CHANNELS 3 Zrotation Yrotation Xrotation
            JOINT RightArm
            {
              OFFSET -16.027195 -2e-06 1.1e-05
              CHANNELS 3 Zrotation Yrotation Xrotation
              JOINT RightForeArm
              {
                OFFSET -28.736639 4e-06 2e-06
                CHANNELS 3 Zrotation Yrotation Xrotation
                JOINT RightHand
                {
                  OFFSET -27.133619 6e-06 0.0
                  CHANNELS 3 Zrotation Yrotation Xrotation
                  JOINT RightHandThumb1
                  {
                    OFFSET -2.274328 -3.351035 -0.83067
                    CHANNELS 3 Zrotation Yrotation Xrotation
                    JOINT RightHandThumb2
                    {
                      OFFSET -4.703594 -3e-06 2e-06
                      CHANNELS 3 Zrotation Yrotation Xrotation
                      JOINT RightHandThumb3
                      {
                        OFFSET -2.794935 -4e-06 -3e-06
                        CHANNELS 3 Zrotation Yrotation Xrotation
                        JOINT RightHandThumbEnd
                        {
                          OFFSET -3.183852 4e-06 1e-06
                          CHANNELS 3 Zrotation Yrotation Xrotation
                        }
                      }
                    }
                  }
                  JOINT RightHandIndex1
                  {
                    OFFSET -3.253496 -2.33755 -0.127667
                    CHANNELS 3 Zrotation Yrotation Xrotation
                    JOINT RightHandIndex2
                    {
                      OFFSET -6.344434 0.0 0.0
                      CHANNELS 3 Zrotation Yrotation Xrotation
                      JOINT RightHandIndex3
                      {
                        OFFSET -3.654871 0.0 -8e-06
                        CHANNELS 3 Zrotation Yrotation Xrotation
                        JOINT RightHandIndex4
                        {
                          OFFSET -2.327586 -1e-06 0.0
                          CHANNELS 3 Zrotation Yrotation Xrotation
                          JOINT RightHandIndexEnd
                          {
                            OFFSET -2.770001 3e-06 8e-06
                            CHANNELS 3 Zrotation Yrotation Xrotation
                          }
                        }
                      }
                    }
                  }
                  JOINT RightHandMiddle1
                  {
                    OFFSET -3.168223 -0.944764 0.411762
                    CHANNELS 3 Zrotation Yrotation Xrotation
                    JOINT RightHandMiddle2
                    {
                      OFFSET -6.266691 -1e-06 -4e-06
                      CHANNELS 3 Zrotation Yrotation Xrotation
                      JOINT RightHandMiddle3
                      {
                        OFFSET -4.348901 0.0 0.0
                        CHANNELS 3 Zrotation Yrotation Xrotation
                        JOINT RightHandMiddle4
                        {
                          OFFSET -3.00024 2e-06 -4e-06
                          CHANNELS 3 Zrotation Yrotation Xrotation
                          JOINT RightHandMiddleEnd
                          {
                            OFFSET -2.321477 -4e-06 -4e-06
                            CHANNELS 3 Zrotation Yrotation Xrotation
                          }
                        }
                      }
                    }
                  }
                  JOINT RightHandRing1
                  {
                    OFFSET -2.885654 0.293261 -0.119232
                    CHANNELS 3 Zrotation Yrotation Xrotation
                    JOINT RightHandRing2
                    {
                      OFFSET -6.032835 -1e-06 -4e-06
                      CHANNELS 3 Zrotation Yrotation Xrotation
                      JOINT RightHandRing3
                      {
                        OFFSET -4.33881 0.0 -4e-06
                        CHANNELS 3 Zrotation Yrotation Xrotation
                        JOINT RightHandRing4
                        {
                          OFFSET -2.654903 -4e-06 -4e-06
                          CHANNELS 3 Zrotation Yrotation Xrotation
                          JOINT RightHandRingEnd
                          {
                            OFFSET -1.935122 0.0 4e-06
                            CHANNELS 3 Zrotation Yrotation Xrotation
                          }
                        }
                      }
                    }
                  }
                  JOINT RightHandPinky1
                  {
                    OFFSET -2.866241 1.503904 -0.60527
                    CHANNELS 3 Zrotation Yrotation Xrotation
                    JOINT RightHandPinky2
                    {
                      OFFSET -5.553177 -2e-06 0.0
                      CHANNELS 3 Zrotation Yrotation Xrotation
                      JOINT RightHandPinky3
                      {
                        OFFSET -3.062664 -1e-06 -4e-06
                        CHANNELS 3 Zrotation Yrotation Xrotation
                        JOINT RightHandPinky4
                        {
                          OFFSET -1.546529 2e-06 4e-06
                          CHANNELS 3 Zrotation Yrotation Xrotation
                          JOINT RightHandPinkyEnd
                          {
                            OFFSET -1.952341 0.0 -4e-06
                            CHANNELS 3 Zrotation Yrotation Xrotation
                          }
                        }
                      }
                    }
                  }
                }
              }
            }
          }
        }
      }
    }
    JOINT LeftLeg
    {
      OFFSET -8.443107 2.567604 10.043214
      CHANNELS 3 Zrotation Yrotation Xrotation
      JOINT LeftShin
      {
        OFFSET 43.229198 1e-06 -1e-06
        CHANNELS 3 Zrotation Yrotation Xrotation
        JOINT LeftFoot
        {
          OFFSET 42.298611 1e-06 1e-06
          CHANNELS 3 Zrotation Yrotation Xrotation
          JOINT LeftToeBase
          {
            OFFSET 14.165858 1e-06 0.0
            CHANNELS 3 Zrotation Yrotation Xrotation
            JOINT LeftToeEnd
            {
              OFFSET 6.7141 -0.234461 0.0
              CHANNELS 3 Zrotation Yrotation Xrotation
            }
          }
        }
      }
    }
    JOINT RightLeg
    {
      OFFSET -8.303923 2.592729 -10.047278
      CHANNELS 3 Zrotation Yrotation Xrotation
      JOINT RightShin
      {
        OFFSET -43.369682 0.0 1e-06
        CHANNELS 3 Zrotation Yrotation Xrotation
        JOINT RightFoot
        {
          OFFSET -42.260784 4e-06 2e-06
          CHANNELS 3 Zrotation Yrotation Xrotation
          JOINT RightToeBase
          {
            OFFSET -14.222245 -2e-06 -1e-06
            CHANNELS 3 Zrotation Yrotation Xrotation
            JOINT RightToeEnd
            {
              OFFSET -6.660062 0.232574 -2e-06
              CHANNELS 3 Zrotation Yrotation Xrotation
            }
          }
        }
      }
    }
  }
}
MOTION
Frames: 4
Frame Time: 0.03333333333333333
0.0 0.0 0.0 0.0 -0.0 0.0 -0.444256 48.883675 6.440569 94.163254 -50.494076 88.741379 18.633116 0.638044 -0.046844 -3.971138 -0.127976 -0.676728 19.323088 0.099353 -3.172657 28.14246 -3.942131 2.44475 -2.606253 0.147198 -0.896327 -17.443256 -2.112452 -1.841832 6e-06 -0.0 0.0 -0.255202 0.133196 0.01636 -0.182601 0.308095 0.02266 -0.196221 -0.037804 0.016957 1.049374 -72.961563 1.457498 78.227661 -3.012873 -24.574646 10.164575 -1.232262 -0.060871 -0.150636 80.256699 8.932453 17.636637 -26.322725 52.411182 -19.46665 -14.395596 29.410378 -2e-06 -8.774822 -4e-06 15.928533 -17.556347 6.333656 -0.609777 -1.795654 -3.889327 -4.807089 -11.046808 -2.93785 3e-06 -20.976019 0.0 -5.019971 -25.033552 -4.031883 6e-06 0.0 1e-06 -10.634535 -5.686971 -3.565587 10.573271 -17.922949 -3.113898 2e-06 -13.82121 1e-06 -0.501778 -31.181505 -4.027016 -11.157525 -59.187477 6.896582 -13.982716 -7.150198 -2.875042 13.77273 -8.40149 -3.218239 0.347732 -34.211555 0.771656 -0.963029 -17.73337 2.62102 -0.0 -1e-06 0.0 -17.346422 -20.095215 -4.201782 21.757563 -1.638376 3.866431 1e-06 -6.338824 1e-06 -1.697591 -22.59174 -6.194006 -1e-06 -7e-06 -3e-06 177.724014 -72.914536 6.57917 81.228821 -3.06949 -33.747757 8.536809 -0.477703 -0.066238 53.066143 69.375771 57.399689 22.182119 -20.375889 49.933296 -16.701811 -16.743528 28.476521 -2e-06 -12.690599 -2e-06 16.19664 -17.165848 2.686616 -0.105919 -1.513856 -4.27588 -5.039039 -5.612869 -2.953555 4e-06 -11.020521 -1e-06 -6.111298 -15.895329 -3.84047 -0.0 -0.0 0.0 -10.283368 -5.680287 -4.341838 11.028293 -11.302404 -2.372632 -1.384269 -14.238577 -6.320118 -0.625439 -26.924183 -3.8276 -4.609655 -49.297901 -3.639743 -13.708525 -7.363475 -3.720938 18.141146 -14.052737 -3.242672 6e-06 -18.787266 -1e-06 -0.429712 -8.456045 2.555503 -0.0 2e-06 0.0 -15.923534 -20.094479 -5.473584 30.419207 -7.190824 1.735928 3e-06 -8.162922 -0.0 -1.861902 -22.861465 -6.167941 -1e-06 -2e-06 -1e-06 130.388092 -1.202493 5.256279 105.769524 0.106562 0.347495 -60.754875 22.481783 -6.505982 -11.856869 1.380274 1.936261 -0.999997 0.0 -1e-06 -47.506622 -10.660221 3.241129 102.797653 -1.847551 -0.114978 -50.505096 4.890816 -5.795605 -7.740933 0.518487 1.981432 -1.000004 -0.0 0.0 
0.0 0.0 0.0 0.0 -0.0 0.0 -0.221765 48.955528 6.542913 93.892593 -50.332882 88.899361 18.635681 0.788785 -0.017575 -4.050899 -0.031711 -0.582119 19.480471 0.130042 -3.004425 28.195782 -4.073259 2.281247 -2.617999 0.163251 -0.87321 -17.278685 -2.14219 -1.898097 6e-06 0.0 -0.0 -0.25855 0.084921 0.011924 -0.157269 0.257716 0.01493 -0.172065 -0.080945 0.012268 1.959122 -73.130783 0.723724 78.338562 -2.946707 -25.328045 9.906673 -1.215703 -0.058534 5.879457 79.941658 14.393326 17.636639 -26.322737 52.411201 -19.466663 -14.395598 29.410389 -1e-06 -8.774822 -4e-06 15.966737 -17.686586 6.27446 -0.609776 -1.795654 -3.889329 -4.80709 -11.046813 -2.93785 3e-06 -20.976021 1e-06 -5.019973 -25.03356 -4.03188 7e-06 1e-06 1e-06 -10.634537 -5.686973 -3.565588 10.573276 -17.922955 -3.1139 3e-06 -13.821213 1e-06 -0.501778 -31.181511 -4.027016 -11.094546 -59.387627 6.847796 -13.982715 -7.150199 -2.875043 13.772731 -8.401496 -3.218242 0.347734 -34.211559 0.771655 -0.963029 -17.733372 2.62102 0.0 0.0 0.0 -17.34642 -20.095222 -4.201783 21.757561 -1.638375 3.866429 1e-06 -6.338825 1e-06 -1.69759 -22.591755 -6.194008 -1e-06 -5e-06 -3e-06 177.843796 -72.853271 6.696738 81.192055 -3.041086 -33.630993 8.129792 -0.367922 -0.059864 53.111198 69.15947 57.328564 22.182119 -20.375885 49.933308 -16.701809 -16.743528 28.476522 -2e-06 -12.690599 -1e-06 16.037439 -17.074654 2.768896 -0.105919 -1.513857 -4.275881 -5.039041 -5.612868 -2.953556 4e-06 -11.02052 -2e-06 -6.111296 -15.895326 -3.840472 -1e-06 -1e-06 -0.0 -10.28337 -5.680286 -4.341839 11.028294 -11.302403 -2.372632 -1.384269 -14.238575 -6.32012 -0.625437 -26.924183 -3.827601 -4.617026 -49.374641 -3.519995 -13.708525 -7.363473 -3.720939 18.141146 -14.052736 -3.242673 7e-06 -18.787262 -2e-06 -0.429711 -8.456043 2.555503 -0.0 -2e-06 -0.0 -15.923536 -20.094479 -5.473586 30.41921 -7.190829 1.735928 3e-06 -8.162921 0.0 -1.861902 -22.86146 -6.16794 -1e-06 -4e-06 -1e-06 130.681458 -1.015926 5.29054 105.625267 0.07498 0.331291 -60.757832 22.356401 -6.376203 -11.624801 1.404189 1.908238 -0.999997 0.0 -1e-06 -47.186287 -10.769353 3.088541 102.464104 -1.912466 -0.113417 -50.274242 4.903662 -5.71646 -7.593836 0.488079 2.003985 -1.000006 0.0 1e-06 
0.0 0.0 0.0 0.0 -0.0 0.0 -0.039301 48.965897 6.577554 93.755775 -50.201435 88.983887 18.606827 0.865255 0.01577 -4.095604 0.080009 -0.48816 19.621788 0.126664 -2.895682 28.247791 -4.109919 2.16607 -2.620651 0.129725 -0.86369 -17.244267 -2.257307 -1.93614 6e-06 0.0 0.0 -0.250769 0.057375 0.010884 -0.174293 0.223679 0.004451 -0.17956 -0.100343 0.016046 2.811363 -73.052292 0.059781 78.356155 -2.829224 -25.710217 9.799008 -1.174551 -0.055076 7.943166 79.543022 16.03005 17.636627 -26.322729 52.41119 -19.466656 -14.395597 29.410381 -1e-06 -8.774821 -3e-06 15.989374 -17.75573 6.214558 -0.609777 -1.795653 -3.889327 -4.807089 -11.046809 -2.93785 2e-06 -20.976015 -0.0 -5.019969 -25.033556 -4.03188 7e-06 1e-06 -0.0 -10.634535 -5.68697 -3.565587 10.573272 -17.922947 -3.1139 2e-06 -13.821205 0.0 -0.501778 -31.181494 -4.027016 -10.988269 -59.4566 6.779428 -13.982712 -7.150198 -2.875041 13.772727 -8.401491 -3.218242 0.347733 -34.21154 0.771654 -0.963028 -17.733364 2.621019 0.0 0.0 0.0 -17.346416 -20.095215 -4.20178 21.757557 -1.638373 3.866428 1e-06 -6.338823 1e-06 -1.697591 -22.591742 -6.194006 0.0 -5e-06 -2e-06 178.166214 -72.822243 6.625634 80.975044 -2.974109 -33.479836 7.875337 -0.317136 -0.05945 53.692833 69.126869 58.042702 22.182114 -20.375898 49.933319 -16.701813 -16.743528 28.47653 -1e-06 -12.6906 -1e-06 16.008375 -16.964787 2.801382 -0.105919 -1.513857 -4.275882 -5.039041 -5.612871 -2.953557 3e-06 -11.020525 -1e-06 -6.111297 -15.895336 -3.840469 -1e-06 -1e-06 -1e-06 -10.283369 -5.68029 -4.341838 11.028294 -11.302406 -2.372632 -1.384269 -14.238582 -6.320121 -0.62544 -26.924194 -3.827602 -4.585825 -49.402443 -3.46474 -13.708524 -7.363477 -3.720939 18.141148 -14.052741 -3.242674 6e-06 -18.78727 -2e-06 -0.429712 -8.456046 2.555504 0.0 -1e-06 0.0 -15.923532 -20.094484 -5.473583 30.41921 -7.190827 1.735925 3e-06 -8.162925 -1e-06 -1.861904 -22.861473 -6.167941 -0.0 -3e-06 -1e-06 130.877243 -0.818452 5.297326 105.607796 0.062048 0.332084 -60.816387 22.216114 -6.273653 -11.597995 1.408132 1.891392 -0.999999 -1e-06 -0.0 -46.974262 -10.892347 3.06396 102.327843 -1.940291 -0.08789 -50.204975 5.193197 -5.654595 -7.513169 0.465846 2.022933 -1.000005 0.0 -0.0 
0.0 0.0 0.0 0.0 -0.0 0.0 0.086646 48.940071 6.554744 93.676437 -50.190411 89.11866 18.554873 0.914201 0.036229 -4.122758 0.137795 -0.440596 19.650646 0.177808 -2.87262 28.276522 -4.112456 2.103039 -2.612259 0.106927 -0.878011 -17.259695 -2.343666 -1.916529 6e-06 -0.0 0.0 -0.247151 0.039717 0.009614 -0.222569 0.206275 -0.010025 -0.2148 -0.118814 0.024839 3.353062 -72.919937 -0.373534 78.346336 -2.754658 -25.860483 9.775342 -1.173588 -0.059024 8.344027 79.283508 16.495945 17.636631 -26.322729 52.411186 -19.466652 -14.395594 29.410381 -1e-06 -8.77482 -4e-06 15.94808 -17.745213 6.214806 -0.609776 -1.795654 -3.889327 -4.807088 -11.046809 -2.93785 3e-06 -20.976017 0.0 -5.01997 -25.033554 -4.031882 6e-06 2e-06 1e-06 -10.634532 -5.68697 -3.565588 10.573271 -17.922951 -3.113899 2e-06 -13.821211 1e-06 -0.501779 -31.181505 -4.027014 -10.864746 -59.477539 6.667071 -13.982712 -7.150198 -2.875042 13.772727 -8.401491 -3.21824 0.347732 -34.211544 0.771656 -0.963029 -17.73337 2.62102 0.0 0.0 0.0 -17.346416 -20.095217 -4.201781 21.757555 -1.638376 3.866429 1e-06 -6.338822 1e-06 -1.69759 -22.59174 -6.194005 -0.0 -4e-06 -2e-06 178.220352 -72.807899 6.691494 80.777298 -3.037172 -33.270565 7.857898 -0.28759 -0.060311 54.326599 69.231728 58.983269 22.182114 -20.375891 49.933315 -16.701809 -16.743528 28.476528 -2e-06 -12.6906 -1e-06 16.031977 -16.895731 2.838248 -0.10592 -1.513857 -4.275881 -5.03904 -5.61287 -2.953556 4e-06 -11.020525 -2e-06 -6.111298 -15.895334 -3.84047 1e-06 -3e-06 0.0 -10.283369 -5.680289 -4.341838 11.028294 -11.302405 -2.372633 -1.384269 -14.238579 -6.320121 -0.625439 -26.924194 -3.8276 -4.558592 -49.502583 -3.375762 -13.708523 -7.363476 -3.720939 18.141148 -14.052739 -3.242674 6e-06 -18.787266 -3e-06 -0.429712 -8.456041 2.555503 0.0 -2e-06 0.0 -15.923532 -20.094484 -5.473584 30.419205 -7.190824 1.735926 3e-06 -8.162921 -0.0 -1.861902 -22.861467 -6.167941 -1e-06 -3e-06 -1e-06 130.862518 -0.610559 5.372541 105.727394 0.068643 0.343575 -61.103916 22.123951 -6.217892 -11.770326 1.39862 1.886789 -0.999996 0.0 -0.0 -46.941334 -11.068986 3.047734 102.352493 -1.91401 -0.064532 -50.30648 5.470973 -5.754374 -7.584964 0.461916 2.034055 -1.000003 0.0 0.0 
